<svg xmlns="http://www.w3.org/2000/svg" version="1.1" xmlns:xlink="http://www.w3.org/1999/xlink" xmlns:svgjs="http://svgjs.dev/svgjs" width="2000" height="363" viewBox="0 0 2000 363"><g transform="matrix(1,0,0,1,-1.2121212121213603,-0.20316493313526962)"><svg viewBox="0 0 396 72" data-background-color="#ffffff" preserveAspectRatio="xMidYMid meet" height="363" width="2000" xmlns="http://www.w3.org/2000/svg" xmlns:xlink="http://www.w3.org/1999/xlink"><g id="tight-bounds" transform="matrix(1,0,0,1,0.24000000000003752,0.04029717682021783)"><svg viewBox="0 0 395.5199999999999 71.91940564635958" height="71.91940564635958" width="395.5199999999999"><g><svg viewBox="0 0 395.5199999999999 71.91940564635958" height="71.91940564635958" width="395.5199999999999"><g><svg viewBox="0 0 395.5199999999999 71.91940564635958" height="71.91940564635958" width="395.5199999999999"><g><svg viewBox="0 0 395.5199999999999 71.91940564635958" height="71.91940564635958" width="395.5199999999999"><g><svg viewBox="0 0 395.5199999999999 71.91940564635958" height="71.91940564635958" width="395.5199999999999"><g id="textblocktransform"><svg viewBox="0 0 395.5199999999999 71.91940564635958" height="71.91940564635958" width="395.5199999999999" id="textblock"><g><svg viewBox="0 0 395.5199999999999 71.91940564635958" height="71.91940564635958" width="395.5199999999999"><g transform="matrix(1,0,0,1,0,0)"><svg width="395.5199999999999" viewBox="2.85 -37.1 269.16999999999996 48.95" height="71.91940564635958" data-palette-color="#68f6e1"><path d="M10.95 0.6L10.95 0.6Q8.6 0.6 6.83 0.18 5.05-0.25 4.08-0.68 3.1-1.1 3.1-1.1L3.1-1.1 2.85-1.6Q2.85-1.6 2.95-2.27 3.05-2.95 3.15-4.13 3.25-5.3 3.35-6.9 3.45-8.5 3.45-10.3L3.45-10.3 5.7-10.55Q5.7-6.95 6.2-5.08 6.7-3.2 8.1-2.53 9.5-1.85 12.2-1.85L12.2-1.85Q15.3-1.85 17.23-3.33 19.15-4.8 19.15-7.35L19.15-7.35Q19.15-9 18.05-10.2 16.95-11.4 15.23-12.4 13.5-13.4 11.55-14.4L11.55-14.4Q9.55-15.45 7.68-16.65 5.8-17.85 4.6-19.43 3.4-21 3.4-23.15L3.4-23.15Q3.4-25.8 4.93-27.9 6.45-30 9.05-31.23 11.65-32.45 14.9-32.45L14.9-32.45Q17.15-32.45 18.88-32.15 20.6-31.85 21.58-31.53 22.55-31.2 22.55-31.2L22.55-31.2 22.7-30.9Q22.7-30.9 22.48-29.75 22.25-28.6 22-26.68 21.75-24.75 21.6-22.45L21.6-22.45 19.65-22.25 19.35-22.5Q19.35-22.5 19.43-23.23 19.5-23.95 19.5-25.1L19.5-25.1Q19.5-27.75 18.23-28.75 16.95-29.75 13.55-29.75L13.55-29.75Q10.8-29.75 9.03-28.38 7.25-27 7.25-24.95L7.25-24.95Q7.25-23.45 8.2-22.28 9.15-21.1 10.7-20.15 12.25-19.2 14.05-18.25L14.05-18.25Q16.25-17.15 18.38-15.9 20.5-14.65 21.9-13.05 23.3-11.45 23.3-9.15L23.3-9.15Q23.3-6.3 21.73-4.1 20.15-1.9 17.38-0.65 14.6 0.6 10.95 0.6ZM37 0.6L37 0.6Q34.15 0.6 31.95-0.8 29.75-2.2 28.52-4.73 27.3-7.25 27.3-10.5L27.3-10.5Q27.3-14.1 28.82-16.98 30.35-19.85 33-21.53 35.65-23.2 38.9-23.2L38.9-23.2Q41.75-23.2 43.95-21.8 46.15-20.4 47.37-17.9 48.6-15.4 48.6-12.1L48.6-12.1Q48.6-8.55 47.07-5.65 45.55-2.75 42.92-1.07 40.3 0.6 37 0.6ZM38.4-1.85L38.4-1.85Q41.2-1.85 42.85-4.13 44.5-6.4 44.5-10.3L44.5-10.3Q44.5-13.3 43.6-15.6 42.7-17.9 41.1-19.2 39.5-20.5 37.4-20.5L37.4-20.5Q34.6-20.5 32.95-18.2 31.3-15.9 31.3-11.95L31.3-11.95Q31.3-8.95 32.2-6.68 33.1-4.4 34.7-3.13 36.3-1.85 38.4-1.85ZM62.65 0.6L62.65 0.6Q59.5 0.6 57.15-0.78 54.8-2.15 53.5-4.63 52.2-7.1 52.2-10.45L52.2-10.45Q52.2-14.05 53.72-16.93 55.25-19.8 57.87-21.5 60.5-23.2 63.75-23.2L63.75-23.2Q65.34-23.2 66.67-22.98 68-22.75 68.8-22.5 69.59-22.25 69.59-22.25L69.59-22.25 69.75-21.9Q69.75-21.9 69.52-21 69.3-20.1 69.05-18.53 68.8-16.95 68.7-15L68.7-15 66.65-14.85 66.65-16.4Q66.65-18.25 65.52-19.38 64.4-20.5 62.55-20.5L62.55-20.5Q59.5-20.5 57.85-18.32 56.2-16.15 56.2-12.15L56.2-12.15Q56.2-7.8 58.02-5.28 59.85-2.75 63-2.75L63-2.75Q64.4-2.75 65.7-3.18 67-3.6 67.82-4 68.65-4.4 68.65-4.4L68.65-4.4 68.95-4.3 69.5-2.75Q69.5-2.75 68.8-2.25 68.09-1.75 67-1.07 65.9-0.4 64.72 0.1 63.55 0.6 62.65 0.6ZM73.79 0.6L73.79 0.6 73.99-1.45Q75.49-1.85 76.14-2.63 76.79-3.4 76.79-4.7L76.79-4.7 76.79-17.4Q76.79-18.8 76.34-19.45 75.89-20.1 74.94-20.1L74.94-20.1Q74.54-20.1 74.12-20 73.69-19.9 73.69-19.9L73.69-19.9 73.89-21.75Q75.14-21.95 76.42-22.2 77.69-22.45 78.74-22.68 79.79-22.9 80.44-23.05 81.09-23.2 81.09-23.2L81.09-23.2 81.34-22.6Q81.14-22.1 80.92-20.38 80.69-18.65 80.54-16.18 80.39-13.7 80.29-10.78 80.19-7.85 80.19-4.9L80.19-4.9Q80.19-3.45 80.59-2.78 80.99-2.1 81.94-2.1L81.94-2.1Q82.39-2.1 83.04-2.15 83.69-2.2 83.69-2.2L83.69-2.2 83.79-2 83.39 0.15Q83.39 0.15 82.97 0.13 82.54 0.1 81.87 0.08 81.19 0.05 80.42 0.03 79.64 0 78.94 0L78.94 0Q77.89 0 76.69 0.15 75.49 0.3 74.64 0.45 73.79 0.6 73.79 0.6ZM78.19-29.1L78.19-29.1Q76.94-29.1 76.34-29.9 75.74-30.7 75.74-31.65L75.74-31.65Q75.74-32.85 76.59-33.73 77.44-34.6 78.69-34.6L78.69-34.6Q79.89-34.6 80.52-33.83 81.14-33.05 81.14-32.05L81.14-32.05Q81.14-30.85 80.32-29.98 79.49-29.1 78.19-29.1ZM104.29 0.6L104.29 0.6Q102.29 0.6 101.16-0.43 100.04-1.45 99.84-3.45L99.84-3.45 99.64-3.5Q98.44-2.3 97.36-1.43 96.29-0.55 95.47-0.08 94.64 0.4 94.14 0.4L94.14 0.4Q92.29 0.4 90.84-0.4 89.39-1.2 88.56-2.6 87.74-4 87.74-5.8L87.74-5.8Q87.74-7.25 88.47-8.35 89.19-9.45 90.39-9.8L90.39-9.8 99.89-12.4 99.94-14.6Q99.94-17.1 98.79-18.5 97.64-19.9 95.54-19.9L95.54-19.9Q94.14-19.9 92.59-19.25 91.04-18.6 89.54-17.4L89.54-17.4 89.29-17.55 88.69-19.7Q89.99-20.45 91.59-21.28 93.19-22.1 94.64-22.65 96.09-23.2 96.84-23.2L96.84-23.2Q99.04-23.2 100.59-22.43 102.14-21.65 102.97-20.23 103.79-18.8 103.79-16.75L103.79-16.75Q103.79-16.1 103.66-14.65 103.54-13.2 103.34-11.43 103.14-9.65 103.02-8 102.89-6.35 102.89-5.25L102.89-5.25Q102.89-4.15 103.44-3.55 103.99-2.95 104.94-2.95L104.94-2.95Q105.79-2.95 106.64-3.38 107.49-3.8 107.94-4.2L107.94-4.2 108.64-3.4Q108.24-2.75 107.56-1.93 106.89-1.1 106.06-0.4 105.24 0.3 104.29 0.6ZM94.99-3L94.99-3Q95.94-3 97.22-3.68 98.49-4.35 99.54-5.4L99.54-5.4 99.79-10.5 92.99-8.45Q91.54-8 91.54-6.35L91.54-6.35Q91.54-4.95 92.52-3.98 93.49-3 94.99-3ZM110.34 0.6L110.34 0.6 110.54-1.45Q111.99-1.85 112.56-2.48 113.14-3.1 113.24-4.15 113.34-5.2 113.34-6.75L113.34-6.75 113.34-31.3Q113.34-32.55 113.11-33.13 112.89-33.7 112.26-33.85 111.64-34 110.39-33.85L110.39-33.85 110.24-33.95 110.44-35.65Q112.29-35.9 114.14-36.25 115.99-36.6 117.84-37.1L117.84-37.1 118.14-36.45Q117.94-36.1 117.74-34.18 117.54-32.25 117.36-29.13 117.19-26 117.04-22.05 116.89-18.1 116.81-13.7 116.74-9.3 116.74-4.9L116.74-4.9Q116.74-3.4 117.14-2.75 117.54-2.1 118.49-2.1L118.49-2.1 120.24-2.2 120.34-2 119.94 0.15Q119.14 0.1 117.81 0.05 116.49 0 115.49 0L115.49 0Q114.59 0 113.21 0.18 111.84 0.35 110.34 0.6ZM142.03 0.6L142.03 0.6Q139.68 0.6 137.91 0.18 136.13-0.25 135.16-0.68 134.18-1.1 134.18-1.1L134.18-1.1 133.93-1.6Q133.93-1.6 134.03-2.27 134.13-2.95 134.23-4.13 134.33-5.3 134.43-6.9 134.53-8.5 134.53-10.3L134.53-10.3 136.78-10.55Q136.78-6.95 137.28-5.08 137.78-3.2 139.18-2.53 140.58-1.85 143.28-1.85L143.28-1.85Q146.38-1.85 148.31-3.33 150.23-4.8 150.23-7.35L150.23-7.35Q150.23-9 149.13-10.2 148.03-11.4 146.31-12.4 144.58-13.4 142.63-14.4L142.63-14.4Q140.63-15.45 138.76-16.65 136.88-17.85 135.68-19.43 134.48-21 134.48-23.15L134.48-23.15Q134.48-25.8 136.01-27.9 137.53-30 140.13-31.23 142.73-32.45 145.98-32.45L145.98-32.45Q148.23-32.45 149.96-32.15 151.68-31.85 152.66-31.53 153.63-31.2 153.63-31.2L153.63-31.2 153.78-30.9Q153.78-30.9 153.56-29.75 153.33-28.6 153.08-26.68 152.83-24.75 152.68-22.45L152.68-22.45 150.73-22.25 150.43-22.5Q150.43-22.5 150.51-23.23 150.58-23.95 150.58-25.1L150.58-25.1Q150.58-27.75 149.31-28.75 148.03-29.75 144.63-29.75L144.63-29.75Q141.88-29.75 140.11-28.38 138.33-27 138.33-24.95L138.33-24.95Q138.33-23.45 139.28-22.28 140.23-21.1 141.78-20.15 143.33-19.2 145.13-18.25L145.13-18.25Q147.33-17.15 149.46-15.9 151.58-14.65 152.98-13.05 154.38-11.45 154.38-9.15L154.38-9.15Q154.38-6.3 152.81-4.1 151.23-1.9 148.46-0.65 145.68 0.6 142.03 0.6ZM159.83 11.85L159.83 11.85 160.08 9.9Q161.68 9.7 162.16 9.03 162.63 8.35 162.63 6.3L162.63 6.3Q162.63 5.5 162.66 3.95 162.68 2.4 162.71 0.73 162.73-0.95 162.73-2L162.73-2 162.73-16.9Q162.73-18.6 162.18-19.28 161.63-19.95 160.28-19.95L160.28-19.95 159.73-19.95 159.58-20.15 159.73-21.8Q161.48-22.1 163.08-22.43 164.68-22.75 165.71-23 166.73-23.25 166.73-23.25L166.73-23.25 167.03-22.85Q167.03-22.85 166.83-22 166.63-21.15 166.53-20.15L166.53-20.15 166.73-19.8Q168.93-21.35 170.46-22.2 171.98-23.05 172.53-23.05L172.53-23.05Q175.43-23.05 177.58-21.73 179.73-20.4 180.96-18.03 182.18-15.65 182.18-12.5L182.18-12.5Q182.18-9.8 181.21-7.43 180.23-5.05 178.51-3.25 176.78-1.45 174.53-0.43 172.28 0.6 169.73 0.6L169.73 0.6Q169.13 0.6 168.28 0.55 167.43 0.5 166.76 0.45 166.08 0.4 166.08 0.4L166.08 0.4Q166.08 1.65 166.11 2.95 166.13 4.25 166.13 5.55L166.13 5.55Q166.13 7.85 166.61 8.68 167.08 9.5 168.48 9.5L168.48 9.5Q168.88 9.5 169.33 9.47 169.78 9.45 170.18 9.45L170.18 9.45 170.28 9.6 169.88 11.5Q169.28 11.5 168.68 11.5 168.08 11.5 167.51 11.5 166.93 11.5 166.33 11.5 165.73 11.5 165.13 11.5L165.13 11.5Q163.73 11.5 162.51 11.58 161.28 11.65 160.56 11.75 159.83 11.85 159.83 11.85ZM171.13-2.15L171.13-2.15Q174.48-2.15 176.41-4.42 178.33-6.7 178.33-10.65L178.33-10.65Q178.33-13.2 177.46-15.23 176.58-17.25 175.08-18.45 173.58-19.65 171.73-19.65L171.73-19.65Q170.73-19.65 169.28-18.98 167.83-18.3 166.53-17.2L166.53-17.2Q166.43-15.15 166.33-12.7 166.23-10.25 166.18-7.75 166.13-5.25 166.13-3.1L166.13-3.1Q167.13-2.7 168.51-2.43 169.88-2.15 171.13-2.15ZM185.43 0.1L185.73-1.95Q187.18-2.1 187.75-2.7 188.33-3.3 188.33-4.7L188.33-4.7 188.33-31.3Q188.33-32.65 187.9-33.27 187.48-33.9 186.48-33.9L186.48-33.9 185.43-33.9 185.23-34.05 185.43-35.65Q186.58-35.8 187.95-36.05 189.33-36.3 190.63-36.58 191.93-36.85 192.83-37.1L192.83-37.1 193.13-36.45Q192.93-36.1 192.68-33.8 192.43-31.5 192.25-27.75 192.08-24 191.93-19.3L191.93-19.3Q192.28-19.55 193.2-20.18 194.13-20.8 195.3-21.5 196.48-22.2 197.6-22.7 198.73-23.2 199.43-23.2L199.43-23.2Q202.68-23.2 204.48-21.53 206.28-19.85 206.28-16.75L206.28-16.75Q206.28-16.1 206.15-14.6 206.03-13.1 205.88-11.25 205.73-9.4 205.6-7.7 205.48-6 205.48-4.9L205.48-4.9Q205.48-3.45 205.88-2.78 206.28-2.1 207.23-2.1L207.23-2.1Q207.53-2.1 208.05-2.13 208.58-2.15 208.98-2.2L208.98-2.2 209.08-2 208.68 0.15Q207.88 0.1 206.55 0.05 205.23 0 204.23 0L204.23 0Q203.63 0 202.78 0.08 201.93 0.15 200.98 0.28 200.03 0.4 199.08 0.6L199.08 0.6 199.28-1.45Q200.78-1.85 201.43-2.63 202.08-3.4 202.08-4.7L202.08-4.7 202.38-14.6Q202.38-17.1 201.3-18.45 200.23-19.8 198.23-19.8L198.23-19.8Q196.98-19.8 195.15-19 193.33-18.2 191.88-17.05L191.88-17.05Q191.83-15.2 191.8-13.2 191.78-11.2 191.75-9.13 191.73-7.05 191.73-4.9L191.73-4.9Q191.73-3.35 192.15-2.73 192.58-2.1 193.53-2.1L193.53-2.1Q193.83-2.1 194.35-2.13 194.88-2.15 195.28-2.2L195.28-2.2 195.38-2 194.93 0.15Q194.08 0.1 192.73 0.05 191.38 0 190.38 0L190.38 0Q189.33 0 187.9 0.03 186.48 0.05 185.43 0.1L185.43 0.1ZM222.98 0.6L222.98 0.6Q219.83 0.6 217.48-0.8 215.13-2.2 213.8-4.67 212.48-7.15 212.48-10.45L212.48-10.45Q212.48-13 213.35-15.3 214.23-17.6 215.78-19.38 217.33-21.15 219.3-22.18 221.28-23.2 223.53-23.2L223.53-23.2Q230.98-23.2 230.98-15.95L230.98-15.95Q230.98-15.3 230.88-14.6 230.78-13.9 230.68-13.5L230.68-13.5 230.03-12.9 216.23-12.9Q216.18-8.45 217.85-5.88 219.53-3.3 222.58-2.88 225.63-2.45 229.78-4.35L229.78-4.35 230.08-4.25 230.63-2.8Q229.63-2.1 228.25-1.3 226.88-0.5 225.48 0.05 224.08 0.6 222.98 0.6ZM216.43-14.75L216.43-14.75 225.48-15.2Q226.23-15.3 226.48-15.55 226.73-15.8 226.73-16.55L226.73-16.55Q226.73-18.55 225.65-19.6 224.58-20.65 222.58-20.65L222.58-20.65Q220.28-20.65 218.58-19.07 216.88-17.5 216.43-14.75ZM235.77 0.2L236.02-1.8Q237.52-1.95 238.02-2.78 238.52-3.6 238.52-5.95L238.52-5.95 238.52-16.95Q238.52-18.6 238.07-19.3 237.62-20 236.62-20L236.62-20Q236.22-20 235.9-19.93 235.57-19.85 235.57-19.85L235.57-19.85 235.32-20.2 235.47-21.75Q237.02-22.05 238.57-22.4 240.12-22.75 241.17-23 242.22-23.25 242.22-23.25L242.22-23.25 242.57-22.95Q242.57-22.95 242.45-22.15 242.32-21.35 242.22-20.18 242.12-19 242.12-17.8L242.12-17.8 242.32-17.65Q243.87-20 245.87-21.5 247.87-23 249.37-23L249.37-23Q250.22-23 250.57-22.9 250.92-22.8 250.92-22.8L250.92-22.8 251.07-22.6Q251.07-22.6 250.97-21.93 250.87-21.25 250.72-20.18 250.57-19.1 250.45-17.85 250.32-16.6 250.27-15.45L250.27-15.45 248.32-15.3Q248.32-17.35 248.07-18.03 247.82-18.7 246.97-18.7L246.97-18.7Q245.87-18.7 244.62-17.8 243.37-16.9 242.32-15.3L242.32-15.3Q242.32-15.3 242.27-14.38 242.22-13.45 242.17-12.05 242.12-10.65 242.07-9.18 242.02-7.7 241.97-6.58 241.92-5.45 241.92-5.1L241.92-5.1Q241.92-3.4 242.42-2.8 242.92-2.2 244.32-2.2L244.32-2.2Q244.87-2.2 245.7-2.25 246.52-2.3 246.52-2.3L246.52-2.3 246.57-2.1 246.12 0.1Q246.12 0.1 245.62 0.08 245.12 0.05 244.32 0.05 243.52 0.05 242.65 0.03 241.77 0 241.02 0L241.02 0Q239.57 0 238.37 0.05 237.17 0.1 236.47 0.15 235.77 0.2 235.77 0.2L235.77 0.2ZM264.02 0.6L264.02 0.6Q260.87 0.6 258.52-0.8 256.17-2.2 254.85-4.67 253.52-7.15 253.52-10.45L253.52-10.45Q253.52-13 254.4-15.3 255.27-17.6 256.82-19.38 258.37-21.15 260.35-22.18 262.32-23.2 264.57-23.2L264.57-23.2Q272.02-23.2 272.02-15.95L272.02-15.95Q272.02-15.3 271.92-14.6 271.82-13.9 271.72-13.5L271.72-13.5 271.07-12.9 257.27-12.9Q257.22-8.45 258.9-5.88 260.57-3.3 263.62-2.88 266.67-2.45 270.82-4.35L270.82-4.35 271.12-4.25 271.67-2.8Q270.67-2.1 269.3-1.3 267.92-0.5 266.52 0.05 265.12 0.6 264.02 0.6ZM257.47-14.75L257.47-14.75 266.52-15.2Q267.27-15.3 267.52-15.55 267.77-15.8 267.77-16.55L267.77-16.55Q267.77-18.55 266.7-19.6 265.62-20.65 263.62-20.65L263.62-20.65Q261.32-20.65 259.62-19.07 257.92-17.5 257.47-14.75Z" opacity="1" transform="matrix(1,0,0,1,0,0)" fill="#68f6e1" class="wordmark-text-0" data-fill-palette-color="primary" id="text-0"></path></svg></g></svg></g></svg></g></svg></g></svg></g></svg></g></svg></g><defs></defs></svg><rect width="395.5199999999999" height="71.91940564635958" fill="none" stroke="none" visibility="hidden"></rect></g></svg></g></svg>